<?xml version="1.0" encoding="utf-8"?>
<?xml-stylesheet type="text/xsl" href="rss1.xsl"?>
<rss version="2.0" xmlns:atom="http://www.w3.org/2005/Atom" xmlns:content="http://purl.org/rss/1.0/modules/content/" xmlns:dc="http://purl.org/dc/elements/1.1/" xmlns:media="http://search.yahoo.com/mrss/">
<channel>
 <title>Getty</title>
 <link>http://www.gettyimg.com/</link>
 <atom:link href="http://www.gettyimg.com/" rel="self" type="application/rss+xml" />

 
                <item>
                <title><![CDATA[【Apple Music】WEB-RiP - Calvin Harris &amp; Rihanna - This Is What You Came For (1080p)]]></title>
                <link><![CDATA[https://sharemania.us/threads/calvin-harris-rihanna-this-is-what-you-came-for-1080p.222970/]]></link>
                <description><![CDATA[<article>
<blockquote class="messageText SelectQuoteContainer ugc baseHtml">
<img src="https://i.imgur.com/xQNg7Bw.jpg" class="bbCodeImage LbImage" alt="[​IMG]" data-url="https://i.imgur.com/xQNg7Bw.jpg" style=""><br>
<br>
<div class="bbCodeBlock bbCodeCode">
<div class="type">Code:</div>
<pre>General
Complete name                  : C:\Users\asus\Desktop\Calvin Harris &amp; Rihanna - This Is What You Came For.mp4
Format                         : MPEG-4
Format profile                 : Base Media
Codec ID                       : isom (isom/iso2/avc1/mp41)
File size                      : 289 MiB
Duration                       : 3 min 59 s
Overall bit rate               : 10.1 Mb/s
Frame rate                     : 23.976 FPS
Movie name                     : This Is What You Came For
Performer                      : Calvin Harris &amp; Rihanna
Genre                          : Dance
ContentType                    : Music Video
Recorded date                  : 2016-06-16 07:00:00 UTC
Writing application            : Lavf57.29.101
Copyright                      : ℗ (C) 2016 Sony Music Entertainment UK Limited / Westbury Road Entertainment LLC

Video
ID                             : 1
Format                         : AVC
Format/Info                    : Advanced Video Codec
Format profile                 : High@L4
Format settings                : CABAC / 4 Ref Frames
Format settings, CABAC         : Yes
Format settings, Reference fra : 4 frames
Codec ID                       : avc1
Codec ID/Info                  : Advanced Video Coding
Duration                       : 3 min 59 s
Bit rate                       : 9 880 kb/s
Width                          : 1 920 pixels
Height                         : 1 080 pixels
Display aspect ratio           : 16:9
Frame rate mode                : Constant
Frame rate                     : 23.976 (24000/1001) FPS
Color space                    : YUV
Chroma subsampling             : 4:2:0
Bit depth                      : 8 bits
Scan type                      : Progressive
Bits/(Pixel*Frame)             : 0.199
Stream size                    : 282 MiB (97%)
Color range                    : Limited
Color primaries                : BT.709
Transfer characteristics       : BT.709
Matrix coefficients            : BT.709
Codec configuration box        : avcC

Audio
ID                             : 2
Format                         : AAC LC
Format/Info                    : Advanced Audio Codec Low Complexity
Codec ID                       : mp4a-40-2
Duration                       : 3 min 59 s
Bit rate mode                  : Constant
Bit rate                       : 251 kb/s
Channel(s)                     : 2 channels
Channel layout                 : L R
Sampling rate                  : 48.0 kHz
Frame rate                     : 46.875 FPS (1024 SPF)
Compression mode               : Lossy
Stream size                    : 7.17 MiB (2%)
Default                        : Yes
Alternate group                : 1

</pre>
</div>
<div class="bbCodeBlock bbCodeVfcHH HiddenContent">
<div class="attribution type">Hidden Content:</div>
<blockquote>You must either reply or click 'Like' to see the hidden information contained here.</blockquote>
</div>
<div class="messageTextEndMarker">&nbsp;</div>
</blockquote>
</article>]]></description>
                <author><![CDATA[vitalya3]]></author>
                </item>

                
                <item>
                <title><![CDATA[【Live Audios (lossless)】FLAC - JMSN - Live North Hollywood (2016) [Qobuz, 16B-44.1kHz]]]></title>
                <link><![CDATA[https://sharemania.us/threads/jmsn-live-north-hollywood-2016-qobuz-16b-44-1khz.222971/]]></link>
                <description><![CDATA[<article>
<blockquote class="messageText SelectQuoteContainer ugc baseHtml">
<div style="text-align: center"><img src="https://i.imgur.com/RXmXHSh.jpg" class="bbCodeImage LbImage" alt="[​IMG]" data-url="https://i.imgur.com/RXmXHSh.jpg" style=""><br>
<br>
<b>Artist / Group: </b>JMSN<br>
<b>Single / Album:</b> Live North Hollywood<br>
<b>Date of Release:</b> 2016<br>
<b>Genre: </b>Alternative &amp; Indie<br>
<b>Size:</b> 305 MB<br>
<b>Format:</b> FLAC (16B/44.1kHz)<br>
<br>
<div class="bbCodeBlock bbCodeCode">
<div class="type">Code:</div>
<pre>01. It Is. (Live)  00:02:12
02. Power (Live)  00:05:24
03. Fuck U (Live) EXPLICIT  00:08:20
04. Most of All (Live)  00:03:44
05. Foolin (Live)  00:04:16
06. Hypnotized (Live)  00:05:32
07. Affection (Live)  00:03:42
08. Cruel Intentions (Live)  00:14:42</pre>
</div>
<div class="bbCodeBlock bbCodeVfcHH HiddenContent">
<div class="attribution type">Hidden Content:</div>
<blockquote>You must reply before you can see the hidden data contained here.</blockquote>
</div></div>
<div class="messageTextEndMarker">&nbsp;</div>
</blockquote>
</article>]]></description>
                <author><![CDATA[mavs88]]></author>
                </item>

                
                <item>
                <title><![CDATA[【Apple Music】WEB-RiP - Rihanna &amp; Eminem - Love the Way You Lie (feat. Rihanna) (1080p)]]></title>
                <link><![CDATA[https://sharemania.us/threads/rihanna-eminem-love-the-way-you-lie-feat-rihanna-1080p.222969/]]></link>
                <description><![CDATA[<article>
<blockquote class="messageText SelectQuoteContainer ugc baseHtml">
<img src="https://i.imgur.com/xnXBeyd.jpg" class="bbCodeImage LbImage" alt="[​IMG]" data-url="https://i.imgur.com/xnXBeyd.jpg" style=""><br>
<br>
<div class="bbCodeBlock bbCodeCode">
<div class="type">Code:</div>
<pre>General
Complete name                  : C:\Users\asus\Desktop\Rihanna &amp; Eminem - Love the Way You Lie (feat. Rihanna).mp4
Format                         : MPEG-4
Format profile                 : Base Media
Codec ID                       : isom (isom/iso2/avc1/mp41)
File size                      : 216 MiB
Duration                       : 4 min 27 s
Overall bit rate               : 6 775 kb/s
Frame rate                     : 23.976 FPS
Movie name                     : Love the Way You Lie (feat. Rihanna)
Performer                      : Rihanna &amp; Eminem
Genre                          : Hip-Hop/Rap
ContentType                    : Music Video
Recorded date                  : 2010-01-01 08:00:00 UTC
Writing application            : Lavf57.29.101
Copyright                      : ℗ 2010 Aftermath Records

Video
ID                             : 1
Format                         : AVC
Format/Info                    : Advanced Video Codec
Format profile                 : High@L4
Format settings                : CABAC / 5 Ref Frames
Format settings, CABAC         : Yes
Format settings, Reference fra : 5 frames
Codec ID                       : avc1
Codec ID/Info                  : Advanced Video Coding
Duration                       : 4 min 27 s
Bit rate                       : 6 515 kb/s
Width                          : 1 912 pixels
Height                         : 788 pixels
Display aspect ratio           : 2.40:1
Frame rate mode                : Constant
Frame rate                     : 23.976 (24000/1001) FPS
Color space                    : YUV
Chroma subsampling             : 4:2:0
Bit depth                      : 8 bits
Scan type                      : Progressive
Bits/(Pixel*Frame)             : 0.180
Stream size                    : 207 MiB (96%)
Language                       : English
Color range                    : Limited
Color primaries                : BT.709
Transfer characteristics       : BT.709
Matrix coefficients            : BT.709
Codec configuration box        : avcC

Audio
ID                             : 2
Format                         : AAC LC
Format/Info                    : Advanced Audio Codec Low Complexity
Codec ID                       : mp4a-40-2
Duration                       : 4 min 27 s
Bit rate mode                  : Constant
Bit rate                       : 256 kb/s
Channel(s)                     : 2 channels
Channel layout                 : L R
Sampling rate                  : 48.0 kHz
Frame rate                     : 46.875 FPS (1024 SPF)
Compression mode               : Lossy
Stream size                    : 8.16 MiB (4%)
Default                        : Yes
Alternate group                : 1

</pre>
</div>
<div class="bbCodeBlock bbCodeVfcHH HiddenContent">
<div class="attribution type">Hidden Content:</div>
<blockquote>You must either reply or click 'Like' to see the hidden information contained here.</blockquote>
</div>
<div class="messageTextEndMarker">&nbsp;</div>
</blockquote>
</article>]]></description>
                <author><![CDATA[vitalya3]]></author>
                </item>

                </channel></rss>